<svg version="1.0" preserveAspectRatio="xMidYMid meet" height="500" viewBox="0 0 375 374.999991" zoomAndPan="magnify" width="500" xmlns:xlink="http://www.w3.org/1999/xlink" xmlns="http://www.w3.org/2000/svg"><defs><g></g><clipPath id="8199d6f6ed"><path clip-rule="nonzero" d="M 68.929688 58.714844 L 303.355469 58.714844 L 303.355469 293.140625 L 68.929688 293.140625 Z M 68.929688 58.714844"></path></clipPath></defs><g fill-opacity="1" fill="#ffffff"><g transform="translate(105.855426, 71.198869)"><g><path d="M 8.859375 -22.34375 L -0.53125 -15.453125 L 4.125 -9.078125 L 15.140625 -17.15625 L 18.03125 -13.234375 L 2.109375 -1.546875 L -15.328125 -25.28125 L 0.5625 -36.953125 L 3.484375 -33 L -7.5 -24.9375 L -3.34375 -19.28125 L 6.046875 -26.171875 Z M 8.859375 -22.34375"></path></g></g></g><g fill-opacity="1" fill="#ffffff"><g transform="translate(128.484457, 54.844616)"><g><path d="M 24.65625 -9.90625 L 19.03125 -7.65625 L 0.859375 -21.234375 L 8.078125 -3.25 L 2.4375 -0.984375 L -8.546875 -28.3125 L -2.90625 -30.578125 L 15.3125 -16.96875 L 8.0625 -34.984375 L 13.671875 -37.234375 Z M 24.65625 -9.90625"></path></g></g></g><g fill-opacity="1" fill="#ffffff"><g transform="translate(160.172735, 43.131062)"><g><path d="M 18.5 -15.3125 L 6.953125 -13.796875 L 7.984375 -5.96875 L 21.546875 -7.75 L 22.1875 -2.921875 L 2.609375 -0.34375 L -1.234375 -29.546875 L 18.296875 -32.125 L 18.9375 -27.25 L 5.421875 -25.46875 L 6.34375 -18.5 L 17.890625 -20.015625 Z M 18.5 -15.3125"></path></g></g></g><g fill-opacity="1" fill="#ffffff"><g transform="translate(187.988173, 39.851971)"><g><path d="M 14.640625 -9.234375 L 9.84375 -9.765625 L 8.65625 0.953125 L 2.609375 0.28125 L 5.84375 -29 L 16.734375 -27.796875 C 20.191406 -27.410156 22.769531 -26.34375 24.46875 -24.59375 C 26.175781 -22.84375 26.875 -20.5625 26.5625 -17.75 C 26.34375 -15.75 25.726562 -14.128906 24.71875 -12.890625 C 23.707031 -11.660156 22.273438 -10.738281 20.421875 -10.125 L 25.4375 2.515625 L 25.40625 2.796875 L 18.9375 2.09375 Z M 10.375 -14.640625 L 15.234375 -14.109375 C 16.742188 -13.941406 17.957031 -14.195312 18.875 -14.875 C 19.789062 -15.550781 20.328125 -16.566406 20.484375 -17.921875 C 20.628906 -19.296875 20.351562 -20.425781 19.65625 -21.3125 C 18.957031 -22.195312 17.800781 -22.726562 16.1875 -22.90625 L 11.34375 -23.4375 Z M 10.375 -14.640625"></path></g></g></g><g fill-opacity="1" fill="#ffffff"><g transform="translate(218.690893, 43.709515)"><g><path d="M 25.515625 5.875 C 24.035156 6.707031 22.234375 7.097656 20.109375 7.046875 C 17.984375 6.992188 15.789062 6.53125 13.53125 5.65625 C 11.15625 4.738281 9.269531 3.414062 7.875 1.6875 C 6.488281 -0.0390625 5.6875 -2.078125 5.46875 -4.421875 C 5.257812 -6.773438 5.660156 -9.296875 6.671875 -11.984375 L 7.390625 -13.84375 C 8.453125 -16.582031 9.832031 -18.773438 11.53125 -20.421875 C 13.226562 -22.078125 15.15625 -23.097656 17.3125 -23.484375 C 19.46875 -23.867188 21.710938 -23.613281 24.046875 -22.71875 C 27.304688 -21.445312 29.554688 -19.679688 30.796875 -17.421875 C 32.035156 -15.160156 32.238281 -12.484375 31.40625 -9.390625 L 25.90625 -11.515625 C 26.28125 -13.179688 26.175781 -14.546875 25.59375 -15.609375 C 25.007812 -16.671875 23.960938 -17.492188 22.453125 -18.078125 C 20.523438 -18.828125 18.78125 -18.671875 17.21875 -17.609375 C 15.65625 -16.554688 14.3125 -14.601562 13.1875 -11.75 L 12.5 -9.984375 C 11.382812 -7.109375 11.09375 -4.722656 11.625 -2.828125 C 12.15625 -0.941406 13.476562 0.410156 15.59375 1.234375 C 17.71875 2.054688 19.410156 2.1875 20.671875 1.625 L 22.5 -3.109375 L 17.34375 -5.09375 L 18.953125 -9.25 L 29.75 -5.078125 Z M 25.515625 5.875"></path></g></g></g><g fill-opacity="1" fill="#ffffff"><g transform="translate(248.93836, 56.197482)"><g><path d="M 19.828125 -5.65625 L 32.546875 -12.828125 L 37.9375 -8.953125 L 19.109375 0.625 L 12.875 9.28125 L 7.875 5.671875 L 14.109375 -2.984375 L 17.25 -23.859375 L 22.640625 -19.984375 Z M 19.828125 -5.65625"></path></g></g></g><g fill-opacity="1" fill="#ffffff"><g transform="translate(110.934933, 348.168325)"><g><path d="M 4.234375 -0.34375 L 9.21875 1.96875 L 8.34375 3.859375 L 1.015625 0.46875 L 6.265625 -10.90625 L 8.609375 -9.828125 Z M 4.234375 -0.34375"></path></g></g></g><g fill-opacity="1" fill="#ffffff"><g transform="translate(133.338469, 357.308735)"><g><path d="M 3.6875 1.15625 L 1.21875 0.375 L 4.953125 -11.59375 L 7.421875 -10.8125 Z M 3.6875 1.15625"></path></g></g></g><g fill-opacity="1" fill="#ffffff"><g transform="translate(152.530672, 362.552308)"><g><path d="M 6.375 -11.6875 L 8.15625 -2.203125 L 12.703125 -10.703125 L 16.046875 -10.171875 L 14.125 2.203125 L 11.578125 1.796875 L 12.109375 -1.578125 L 13.265625 -7.390625 L 8.484375 1.328125 L 6.734375 1.046875 L 4.828125 -8.6875 L 4.1875 -2.8125 L 3.65625 0.5625 L 1.109375 0.171875 L 3.03125 -12.203125 Z M 6.375 -11.6875"></path></g></g></g><g fill-opacity="1" fill="#ffffff"><g transform="translate(182.513498, 365.734483)"><g><path d="M 3.859375 0.03125 L 1.28125 0.015625 L 1.359375 -12.515625 L 3.9375 -12.5 Z M 3.859375 0.03125"></path></g></g></g><g fill-opacity="1" fill="#ffffff"><g transform="translate(202.328127, 365.071895)"><g><path d="M 9.125 -11.703125 L 5.328125 -11.21875 L 6.65625 -0.859375 L 4.09375 -0.53125 L 2.765625 -10.890625 L -0.984375 -10.40625 L -1.25 -12.46875 L 8.859375 -13.765625 Z M 9.125 -11.703125"></path></g></g></g><g fill-opacity="1" fill="#ffffff"><g transform="translate(227.589205, 360.68473)"><g><path d="M 6.84375 -7.59375 L 2.078125 -6.25 L 3 -3.015625 L 8.59375 -4.59375 L 9.15625 -2.59375 L 1.078125 -0.3125 L -2.34375 -12.375 L 5.71875 -14.65625 L 6.296875 -12.640625 L 0.71875 -11.0625 L 1.53125 -8.1875 L 6.296875 -9.53125 Z M 6.84375 -7.59375"></path></g></g></g><g fill-opacity="1" fill="#ffffff"><g transform="translate(251.006243, 352.946871)"><g><path d="M 1.03125 -0.46875 L -4.15625 -11.875 L -0.671875 -13.46875 C 0.335938 -13.925781 1.335938 -14.109375 2.328125 -14.015625 C 3.328125 -13.929688 4.238281 -13.570312 5.0625 -12.9375 C 5.894531 -12.300781 6.554688 -11.453125 7.046875 -10.390625 L 7.28125 -9.875 C 7.757812 -8.8125 7.96875 -7.765625 7.90625 -6.734375 C 7.84375 -5.703125 7.515625 -4.78125 6.921875 -3.96875 C 6.335938 -3.164062 5.546875 -2.53125 4.546875 -2.0625 Z M -0.953125 -11.03125 L 2.515625 -3.421875 L 3.65625 -3.9375 C 4.570312 -4.351562 5.132812 -4.972656 5.34375 -5.796875 C 5.5625 -6.617188 5.421875 -7.585938 4.921875 -8.703125 L 4.640625 -9.3125 C 4.117188 -10.46875 3.476562 -11.234375 2.71875 -11.609375 C 1.96875 -11.992188 1.125 -11.976562 0.1875 -11.5625 Z M -0.953125 -11.03125"></path></g></g></g><g clip-path="url(#8199d6f6ed)"><path fill-rule="evenodd" fill-opacity="1" d="M 256.9375 168.253906 L 115.347656 168.253906 C 115.089844 170.792969 114.945312 173.332031 114.945312 175.929688 C 114.945312 178.523438 115.089844 181.09375 115.347656 183.601562 C 119.183594 219.316406 149.417969 247.15625 186.140625 247.15625 C 217.414062 247.15625 243.984375 226.988281 253.558594 198.949219 L 237.144531 198.949219 C 228.375 218.363281 208.84375 231.863281 186.140625 231.863281 C 157.871094 231.863281 134.476562 210.863281 130.753906 183.601562 L 303.265625 183.601562 C 303.4375 181.0625 303.527344 178.523438 303.527344 175.929688 C 303.527344 173.359375 303.4375 170.792969 303.265625 168.253906 C 299.3125 107.007812 248.398438 58.542969 186.140625 58.542969 C 121.320312 58.542969 68.757812 111.105469 68.757812 175.929688 C 68.757812 240.75 121.320312 293.3125 186.140625 293.3125 C 220.585938 293.3125 251.570312 278.457031 273.0625 254.828125 C 275.140625 255.464844 277.359375 255.808594 279.667969 255.808594 C 292.363281 255.808594 302.660156 245.480469 302.660156 232.789062 C 302.660156 220.066406 292.363281 209.765625 279.667969 209.765625 C 266.945312 209.765625 256.648438 220.066406 256.648438 232.789062 C 256.648438 237.578125 258.117188 242.046875 260.628906 245.742188 C 242.019531 265.617188 215.539062 278.023438 186.140625 278.023438 C 129.773438 278.023438 84.046875 232.328125 84.046875 175.929688 C 84.046875 119.558594 129.773438 73.835938 186.140625 73.835938 C 239.945312 73.835938 284.054688 115.460938 287.976562 168.253906 Z M 279.667969 240.519531 C 275.371094 240.519531 271.90625 237.058594 271.90625 232.789062 C 271.90625 228.488281 275.371094 225.027344 279.667969 225.027344 C 283.9375 225.027344 287.398438 228.488281 287.398438 232.789062 C 287.398438 237.058594 283.9375 240.519531 279.667969 240.519531 Z M 136.492188 128.328125 C 136.492188 124.058594 139.957031 120.597656 144.226562 120.597656 C 148.496094 120.597656 151.984375 124.058594 151.984375 128.328125 C 151.984375 132.597656 148.496094 136.058594 144.226562 136.058594 C 139.957031 136.058594 136.492188 132.597656 136.492188 128.328125 Z M 121.203125 128.328125 C 121.203125 141.050781 131.503906 151.347656 144.226562 151.347656 C 156.949219 151.347656 167.246094 141.050781 167.246094 128.328125 C 167.246094 126.65625 167.074219 125.039062 166.726562 123.480469 C 172.785156 121.230469 179.332031 120.019531 186.140625 120.019531 C 208.84375 120.019531 228.375 133.519531 237.144531 152.9375 L 253.558594 152.9375 C 243.984375 124.894531 217.414062 104.730469 186.140625 104.730469 C 176.363281 104.730469 167.015625 106.722656 158.535156 110.296875 C 154.609375 107.183594 149.621094 105.308594 144.226562 105.308594 C 131.503906 105.308594 121.203125 115.605469 121.203125 128.328125 Z M 121.203125 128.328125" fill="#ffffff"></path></g><g fill-opacity="1" fill="#ffffff"><g transform="translate(77.032174, 292.023653)"><g><path d="M 13.453125 -1.578125 L 6.328125 5.96875 L 1.90625 1.796875 L 22.125 -19.609375 L 30.484375 -11.703125 C 32.085938 -10.191406 33.21875 -8.566406 33.875 -6.828125 C 34.539062 -5.085938 34.691406 -3.363281 34.328125 -1.65625 C 33.972656 0.0507812 33.144531 1.59375 31.84375 2.96875 C 29.863281 5.070312 27.582031 6.046875 25 5.890625 C 22.414062 5.742188 19.851562 4.472656 17.3125 2.078125 Z M 16.828125 -5.15625 L 20.765625 -1.421875 C 21.929688 -0.328125 23.078125 0.234375 24.203125 0.265625 C 25.335938 0.296875 26.382812 -0.195312 27.34375 -1.21875 C 28.332031 -2.269531 28.828125 -3.410156 28.828125 -4.640625 C 28.828125 -5.867188 28.289062 -7 27.21875 -8.03125 L 23.171875 -11.859375 Z M 16.828125 -5.15625"></path></g></g></g><g fill-opacity="1" fill="#ffffff"><g transform="translate(104.996183, 316.378445)"><g><path d="M 9.984375 0.078125 L 21.171875 6.453125 L 18.75 10.6875 L 2.28125 1.296875 L 16.875 -24.28125 L 22.15625 -21.265625 Z M 9.984375 0.078125"></path></g></g></g><g fill-opacity="1" fill="#ffffff"><g transform="translate(134.034654, 331.854308)"><g><path d="M 20.1875 -0.59375 L 9.9375 -3.484375 L 6.34375 1.796875 L 0.140625 0.03125 L 18.703125 -25.328125 L 24.109375 -23.796875 L 26.703125 7.546875 L 20.5 5.796875 Z M 12.84375 -7.78125 L 19.9375 -5.765625 L 19.375 -17.390625 Z M 12.84375 -7.78125"></path></g></g></g><g fill-opacity="1" fill="#ffffff"><g transform="translate(171.574434, 341.054584)"><g><path d="M 26.578125 0.1875 L 20.515625 0.15625 L 8.84375 -19.3125 L 8.703125 0.0625 L 2.625 0.015625 L 2.84375 -29.4375 L 8.921875 -29.390625 L 20.609375 -9.875 L 20.75 -29.296875 L 26.796875 -29.265625 Z M 26.578125 0.1875"></path></g></g></g><g fill-opacity="1" fill="#ffffff"><g transform="translate(211.639743, 339.859549)"><g><path d="M 25.640625 -6.984375 L 19.796875 -5.390625 L 3.296875 -20.96875 L 8.390625 -2.28125 L 2.53125 -0.6875 L -5.203125 -29.109375 L 0.65625 -30.703125 L 17.171875 -15.0625 L 12.078125 -33.8125 L 17.90625 -35.40625 Z M 25.640625 -6.984375"></path></g></g></g><g fill-opacity="1" fill="#ffffff"><g transform="translate(249.520289, 327.777445)"><g><path d="M 11.375 -21.15625 L 1.25 -15.390625 L 5.15625 -8.53125 L 17.046875 -15.296875 L 19.453125 -11.0625 L 2.28125 -1.296875 L -12.28125 -26.890625 L 4.84375 -36.640625 L 7.28125 -32.375 L -4.5625 -25.625 L -1.09375 -19.515625 L 9.03125 -25.28125 Z M 11.375 -21.15625"></path></g></g></g><g fill-opacity="1" fill="#ffffff"><g transform="translate(278.2974, 310.175604)"><g><path d="M 2.421875 -17.125 L -1.078125 -13.8125 L 6.328125 -5.984375 L 1.90625 -1.796875 L -18.34375 -23.1875 L -10.390625 -30.71875 C -7.859375 -33.113281 -5.375 -34.394531 -2.9375 -34.5625 C -0.5 -34.738281 1.691406 -33.796875 3.640625 -31.734375 C 5.023438 -30.273438 5.859375 -28.757812 6.140625 -27.1875 C 6.421875 -25.613281 6.195312 -23.925781 5.46875 -22.125 L 18.375 -17.78125 L 18.5625 -17.578125 L 13.828125 -13.09375 Z M -4.453125 -17.375 L -0.90625 -20.734375 C 0.195312 -21.773438 0.785156 -22.863281 0.859375 -24 C 0.929688 -25.144531 0.5 -26.21875 -0.4375 -27.21875 C -1.382812 -28.21875 -2.421875 -28.734375 -3.546875 -28.765625 C -4.671875 -28.804688 -5.820312 -28.265625 -7 -27.140625 L -10.53125 -23.796875 Z M -4.453125 -17.375"></path></g></g></g></svg>